<svg width="1600" height="900" viewBox="0 0 1600 900" fill="none" xmlns="http://www.w3.org/2000/svg">
  <rect width="1600" height="900" rx="40" fill="#F3EEDF"/>
  <rect x="70" y="76" width="1460" height="748" rx="32" fill="#1F2A1F"/>
  <text x="118" y="148" fill="#F5F0E7" font-size="42" font-family="Georgia">系统架构与部署视图</text>
  <rect x="118" y="198" width="1364" height="430" rx="24" fill="#2A3828"/>
  <rect x="162" y="278" width="180" height="104" rx="18" fill="#F4EEDF"/>
  <rect x="420" y="278" width="210" height="104" rx="18" fill="#F4EEDF"/>
  <rect x="708" y="278" width="210" height="104" rx="18" fill="#F4EEDF"/>
  <rect x="996" y="240" width="220" height="104" rx="18" fill="#F4EEDF"/>
  <rect x="996" y="404" width="220" height="104" rx="18" fill="#F4EEDF"/>
  <rect x="1294" y="320" width="140" height="104" rx="18" fill="#F4EEDF"/>
  <text x="202" y="338" fill="#1F2A1F" font-size="24" font-family="Segoe UI">PDF</text>
  <text x="448" y="338" fill="#1F2A1F" font-size="24" font-family="Segoe UI">Text Split</text>
  <text x="744" y="338" fill="#1F2A1F" font-size="24" font-family="Segoe UI">Sparse Index</text>
  <text x="1032" y="300" fill="#1F2A1F" font-size="24" font-family="Segoe UI">Kimi Q&A</text>
  <text x="1020" y="464" fill="#1F2A1F" font-size="24" font-family="Segoe UI">Neo4j Graph</text>
  <text x="1324" y="380" fill="#1F2A1F" font-size="24" font-family="Segoe UI">Answer</text>
  <path d="M342 330H396" stroke="#A7BB7C" stroke-width="8" stroke-linecap="round"/>
  <path d="M630 330H684" stroke="#A7BB7C" stroke-width="8" stroke-linecap="round"/>
  <path d="M918 330H972" stroke="#A7BB7C" stroke-width="8" stroke-linecap="round"/>
  <path d="M918 330C956 330 956 456 972 456" stroke="#C4974E" stroke-width="8" stroke-linecap="round"/>
  <path d="M1216 290C1260 290 1260 372 1294 372" stroke="#A7BB7C" stroke-width="8" stroke-linecap="round"/>
  <path d="M1216 456C1260 456 1260 408 1294 408" stroke="#C4974E" stroke-width="8" stroke-linecap="round"/>
  <rect x="118" y="662" width="652" height="122" rx="20" fill="#F4EEDF"/>
  <rect x="830" y="662" width="652" height="122" rx="20" fill="#F4EEDF"/>
  <text x="150" y="716" fill="#1F2A1F" font-size="26" font-family="Georgia">处理进度</text>
  <text x="150" y="756" fill="#5E675A" font-size="18" font-family="Segoe UI">/api/index/progress 与 /api/graph/progress 提供阶段、当前文件、完成百分比。</text>
  <text x="862" y="716" fill="#1F2A1F" font-size="26" font-family="Georgia">部署说明</text>
  <text x="862" y="756" fill="#5E675A" font-size="18" font-family="Segoe UI">FastAPI + Kimi API + 可选 Neo4j，本地即可演示，适合放入求职作品集。</text>
</svg>
