<svg width="1600" height="900" viewBox="0 0 1600 900" fill="none" xmlns="http://www.w3.org/2000/svg">
  <rect width="1600" height="900" rx="40" fill="#F3EEDF"/>
  <rect x="46" y="42" width="1508" height="816" rx="28" fill="#FFF9F0" stroke="#D8CFBC"/>
  <rect x="88" y="92" width="728" height="286" rx="28" fill="#EEF2E4"/>
  <text x="120" y="152" fill="#355222" font-size="26" font-family="Segoe UI">AI Application Portfolio</text>
  <text x="120" y="220" fill="#1E281F" font-size="58" font-family="Georgia">CropRAG 农作物分类论文智能检索助手</text>
  <text x="120" y="298" fill="#5E675A" font-size="24" font-family="Segoe UI">真实论文数据 + 检索增强问答 + 实体抽取 + 知识图谱增强</text>
  <rect x="88" y="410" width="356" height="170" rx="24" fill="#FFFDF8" stroke="#D9D1C1"/>
  <rect x="468" y="410" width="356" height="170" rx="24" fill="#FFFDF8" stroke="#D9D1C1"/>
  <rect x="88" y="604" width="736" height="186" rx="24" fill="#FFFDF8" stroke="#D9D1C1"/>
  <text x="116" y="464" fill="#7A8F58" font-size="18" font-family="Segoe UI">Data</text>
  <text x="116" y="515" fill="#203120" font-size="40" font-family="Georgia">17 PDFs</text>
  <text x="116" y="547" fill="#5E675A" font-size="20" font-family="Segoe UI">真实农作物分类论文集</text>
  <text x="496" y="464" fill="#7A8F58" font-size="18" font-family="Segoe UI">Pipeline</text>
  <text x="496" y="515" fill="#203120" font-size="40" font-family="Georgia">RAG + Graph</text>
  <text x="496" y="547" fill="#5E675A" font-size="20" font-family="Segoe UI">Kimi、TF-IDF、Neo4j 增强链路</text>
  <text x="116" y="656" fill="#7A8F58" font-size="18" font-family="Segoe UI">Feature Strip</text>
  <text x="116" y="708" fill="#203120" font-size="34" font-family="Georgia">处理进度、部署说明、架构图、截图画廊</text>
  <text x="116" y="748" fill="#5E675A" font-size="20" font-family="Segoe UI">页面同时承担产品演示、作品集陈列和面试讲解入口。</text>
  <rect x="886" y="92" width="620" height="698" rx="32" fill="#24411F"/>
  <rect x="930" y="148" width="532" height="140" rx="24" fill="#F6F1E8"/>
  <rect x="930" y="314" width="532" height="182" rx="24" fill="#F6F1E8"/>
  <rect x="930" y="522" width="532" height="224" rx="24" fill="#F6F1E8"/>
  <text x="960" y="206" fill="#395223" font-size="22" font-family="Segoe UI">工作台入口</text>
  <text x="960" y="244" fill="#1F2A1F" font-size="30" font-family="Georgia">索引构建 · 图谱构建</text>
  <text x="960" y="368" fill="#395223" font-size="22" font-family="Segoe UI">智能问答</text>
  <text x="960" y="410" fill="#1F2A1F" font-size="28" font-family="Georgia">Kimi + Graph 回答与引用</text>
  <text x="960" y="576" fill="#395223" font-size="22" font-family="Segoe UI">作品集素材区</text>
  <text x="960" y="618" fill="#1F2A1F" font-size="28" font-family="Georgia">系统架构 / 部署说明 / 本地截图</text>
</svg>
