<svg width="1600" height="900" viewBox="0 0 1600 900" fill="none" xmlns="http://www.w3.org/2000/svg">
  <rect width="1600" height="900" rx="40" fill="#F3EEDF"/>
  <rect x="48" y="48" width="1504" height="804" rx="28" fill="#FFF8EF" stroke="#D8CFBC"/>
  <rect x="82" y="86" width="730" height="728" rx="28" fill="#FBF7ED" stroke="#D8CFBC"/>
  <rect x="842" y="86" width="676" height="728" rx="28" fill="#FBF7ED" stroke="#D8CFBC"/>
  <text x="112" y="138" fill="#1F2A1F" font-size="34" font-family="Georgia">工作台</text>
  <rect x="112" y="176" width="324" height="146" rx="22" fill="#F1F6E8"/>
  <rect x="458" y="176" width="324" height="146" rx="22" fill="#F1F6E8"/>
  <text x="138" y="222" fill="#56703A" font-size="20" font-family="Segoe UI">索引进度</text>
  <rect x="138" y="246" width="272" height="12" rx="6" fill="#DCE6CF"/>
  <rect x="138" y="246" width="228" height="12" rx="6" fill="#5F7C35"/>
  <text x="138" y="288" fill="#5E675A" font-size="18" font-family="Segoe UI">Extracting text from 13.pdf</text>
  <text x="484" y="222" fill="#56703A" font-size="20" font-family="Segoe UI">图谱进度</text>
  <rect x="484" y="246" width="272" height="12" rx="6" fill="#DCE6CF"/>
  <rect x="484" y="246" width="176" height="12" rx="6" fill="#A17633"/>
  <text x="484" y="288" fill="#5E675A" font-size="18" font-family="Segoe UI">Writing graph nodes to Neo4j</text>
  <rect x="112" y="346" width="670" height="196" rx="22" fill="#FFFFFF" stroke="#D8CFBC"/>
  <text x="138" y="392" fill="#56703A" font-size="20" font-family="Segoe UI">索引状态</text>
  <text x="138" y="434" fill="#1F2A1F" font-size="28" font-family="Georgia">17 文档 · 1367 chunks</text>
  <text x="138" y="474" fill="#5E675A" font-size="18" font-family="Segoe UI">E:\crop_paper\农作物分类论文</text>
  <rect x="112" y="568" width="670" height="210" rx="22" fill="#FFFFFF" stroke="#D8CFBC"/>
  <text x="138" y="616" fill="#56703A" font-size="20" font-family="Segoe UI">图谱状态</text>
  <text x="138" y="656" fill="#1F2A1F" font-size="28" font-family="Georgia">实体数、关系数、Neo4j 连接状态</text>
  <text x="138" y="698" fill="#5E675A" font-size="18" font-family="Segoe UI">driver_available / connected / ready</text>
  <text x="874" y="138" fill="#1F2A1F" font-size="34" font-family="Georgia">智能问答</text>
  <rect x="874" y="176" width="610" height="146" rx="22" fill="#FFF8E9"/>
  <text x="904" y="224" fill="#906129" font-size="20" font-family="Segoe UI">问题</text>
  <text x="904" y="272" fill="#1F2A1F" font-size="26" font-family="Georgia">这些论文中常见的农作物分类方法有哪些？</text>
  <rect x="874" y="346" width="610" height="228" rx="22" fill="#FFFFFF" stroke="#D8CFBC"/>
  <text x="904" y="394" fill="#56703A" font-size="20" font-family="Segoe UI">回答</text>
  <text x="904" y="438" fill="#1F2A1F" font-size="24" font-family="Georgia">随机森林、SVM、最大似然法与深度学习模型</text>
  <text x="904" y="478" fill="#5E675A" font-size="18" font-family="Segoe UI">带 [S1][S3][S5] 来源编号</text>
  <rect x="874" y="600" width="610" height="178" rx="22" fill="#FFFFFF" stroke="#D8CFBC"/>
  <text x="904" y="646" fill="#56703A" font-size="20" font-family="Segoe UI">图谱事实</text>
  <text x="904" y="688" fill="#1F2A1F" font-size="22" font-family="Georgia">Method → RELATED_TO → Sensor / Dataset / Crop</text>
</svg>
